REM MD5 11016af37f5129fc49216198a30a03a0
FILE "Shadow Madness (France) (Disc 2).bin" BINARY
  TRACK 01 MODE2/2352
    INDEX 01 00:00:00
  TRACK 02 AUDIO
    INDEX 00 57:29:34
    INDEX 01 57:31:34
  TRACK 03 AUDIO
    INDEX 00 61:36:20
    INDEX 01 61:38:20
  TRACK 04 AUDIO
    INDEX 00 64:45:72
    INDEX 01 64:47:72
REM LEADOUT 70:00:72
